<svg class="css-ze2te4 css-qd6ojx" viewBox="0 0 70 70">
    <path style="text-indent:0;text-transform:none;direction:ltr;block-progression:tb;baseline-shift:baseline" d="M13.54 1013.168c-4.16 0-7.54 3.392-7.54 7.57 0 4.176 3.38 7.604 7.54 7.604.814 0 1.615-.136 2.384-.393 12.281 18.9 36.65 23.261 54.493 13.032.521-.299.725-1.047.427-1.57s-1.044-.728-1.565-.429c-16.773 9.615-39.671 5.63-51.328-12.104a7.6 7.6 0 0 0 3.13-6.14c0-4.178-3.379-7.57-7.54-7.57m56.876-42.595c-.95.121-1.237 1.69-.39 2.142 13.429 8.22 20.928 24.302 17.642 40.56a7 7 0 0 0-1.21-.107c-4.161 0-7.54 3.392-7.54 7.57 0 4.176 3.379 7.604 7.54 7.604s7.541-3.428 7.541-7.605a7.53 7.53 0 0 0-4.162-6.748c3.608-17.29-4.33-34.482-18.638-43.237a1.15 1.15 0 0 0-.64-.179 1 1 0 0 0-.143 0M50 958.362c-4.012 0-7.274 3.17-7.505 7.141-17.197 3.194-29.728 16.853-32.582 33.062a1.138 1.143 0 1 0 2.24.393c2.682-15.225 14.389-28.071 30.52-31.17.826 3.285 3.802 5.713 7.327 5.713 4.161 0 7.54-3.392 7.54-7.57 0-4.177-3.379-7.569-7.54-7.569" overflow="visible" transform="translate(-4.773 -762.33)scale(.79545)"
        xmlns="http://www.w3.org/2000/svg" fill="#fff" fill-rule="evenodd"/>
</svg>