<svg width="250" height="60" viewBox="0 0 250 60" fill="none" xmlns="http://www.w3.org/2000/svg">
<g clip-path="url(#clip0_137_648)">
<path d="M63.7048 21.45H17.0181C16.491 21.45 16.1145 21.9 16.1145 22.35V24.15H14.3072C13.7801 24.15 13.4036 24.6 13.4036 25.05V26.775H11.6717C11.1446 26.775 10.7681 27.225 10.7681 27.675V52.575C10.7681 53.1 11.2199 53.475 11.6717 53.475H58.4337C58.9608 53.475 59.3373 53.025 59.3373 52.575V50.85H60.994C61.5211 50.85 61.8976 50.4 61.8976 49.95V48.15H63.7048C64.2319 48.15 64.6084 47.7 64.6084 47.25V22.35C64.6837 21.825 64.2319 21.45 63.7048 21.45ZM12.5 28.725H25.2259C23.7952 32.1 23.0422 36.075 23.0422 40.2C23.0422 44.325 23.7952 48.375 25.2259 51.675H12.5V28.725ZM26.8825 51.675C25.3765 48.375 24.5482 44.325 24.5482 40.2C24.5482 36.075 25.3765 31.95 26.8825 28.725H42.997C44.503 32.025 45.3313 36.075 45.3313 40.2C45.3313 44.325 44.503 48.45 42.997 51.675H26.8825ZM57.3795 51.675H44.6536C46.0843 48.3 46.8373 44.325 46.8373 40.2C46.8373 36.075 46.0843 32.025 44.6536 28.725H57.3795V51.675ZM60.015 49.05H59.262V27.75C59.262 27.225 58.8102 26.85 58.3584 26.85H15.2108V26.1H60.0904V49.05H60.015ZM62.8012 46.275H61.9729V25.125C61.9729 24.6 61.5211 24.225 61.0693 24.225H17.9217V23.4H62.8012V46.275Z" fill="url(#paint0_linear_137_648)"/>
<path d="M39.006 40.5C38.4036 39.9 37.3494 39.45 35.6927 39.15V35.025C36.6716 35.175 37.1987 35.775 37.274 36.675C37.274 36.75 37.3493 36.825 37.4247 36.825H39.3825C39.4578 36.825 39.4578 36.825 39.5331 36.75C39.5331 36.675 39.6084 36.675 39.6084 36.6C39.3825 34.575 38.0271 33.375 35.6927 33.225V32.025C35.6927 31.95 35.6174 31.875 35.5421 31.875H34.4879C34.4126 31.875 34.3373 31.95 34.3373 32.025V33.225C33.1325 33.375 32.1536 33.75 31.4759 34.35C30.7228 35.025 30.3463 35.925 30.3463 37.05C30.3463 39 31.7018 40.2 34.4126 40.725V45.375C33.2078 45.15 32.5301 44.325 32.3795 43.05C32.3795 42.975 32.3042 42.9 32.2289 42.9H30.1204C30.0451 42.9 30.0451 42.9 29.9698 42.975C29.9698 43.05 29.8945 43.05 29.8945 43.125C30.1204 45.525 31.5512 46.875 34.262 47.175V48.375C34.262 48.45 34.3373 48.525 34.4126 48.525H35.4668C35.5421 48.525 35.6174 48.45 35.6174 48.375V47.175C36.8975 47.1 37.9518 46.65 38.7048 45.9C39.4578 45.075 39.9096 44.1 39.9096 43.05C39.9849 41.925 39.6837 41.1 39.006 40.5ZM34.262 38.85C33.7349 38.7 33.3584 38.55 33.0572 38.25C32.6807 37.95 32.5301 37.575 32.5301 36.975C32.5301 35.925 33.1325 35.25 34.262 35.025V38.85ZM35.6927 45.375V41.025C36.4457 41.25 36.9728 41.475 37.1987 41.7C37.5 42 37.6506 42.45 37.6506 42.975C37.6506 44.4 37.0481 45.225 35.6927 45.375Z" fill="url(#paint1_linear_137_648)"/>
<path d="M72.2241 19.02V34.5432C72.2241 34.7448 72.5711 34.8024 72.5711 34.5432V26.796H77.8915C78.1807 26.796 78.1807 26.3928 77.8915 26.3928H72.5711V19.2504H79.0482C79.2506 19.2504 79.3084 18.876 79.0482 18.876H72.3976C72.3108 18.876 72.2241 18.9048 72.2241 19.02ZM74.0458 36.3H70.7205C70.5759 36.3 70.4891 36.1848 70.4891 36.0408V17.5512C70.4891 17.4072 70.5759 17.292 70.7205 17.292H80.5518C80.6964 17.292 80.812 17.4072 80.812 17.5512V20.6328C80.812 20.7768 80.6964 20.892 80.5518 20.892H74.306V24.8088H79.1638C79.3084 24.8088 79.3952 24.924 79.3952 25.068V28.2072C79.3952 28.3512 79.3084 28.4664 79.1638 28.4664H74.306V36.0408C74.306 36.1848 74.1903 36.3 74.0458 36.3ZM88.3879 17.292C88.5325 17.292 88.6482 17.4072 88.6482 17.5512V32.6712H94.894C95.0385 32.6712 95.1542 32.7864 95.1542 32.9304V36.0408C95.1542 36.1848 95.0385 36.3 94.894 36.3H85.0915C84.947 36.3 84.8602 36.1848 84.8602 36.0408V17.5512C84.8602 17.4072 84.947 17.292 85.0915 17.292H88.3879ZM86.5952 19.0488V34.5432C86.5952 34.6008 86.653 34.6872 86.7687 34.6872H93.4482C93.6795 34.6872 93.6795 34.3128 93.4482 34.3128H86.9132V19.0488C86.9132 18.8472 86.5952 18.8184 86.5952 19.0488ZM105.477 17.0328C107.964 17.0328 109.699 17.58 110.798 18.7608C111.665 19.7112 112.07 21.0648 112.07 22.9944V30.5688C112.07 32.556 111.665 33.9384 110.798 34.86C109.67 36.012 107.964 36.588 105.477 36.588C102.904 36.588 101.226 36.012 100.128 34.86C99.2891 33.9384 98.8265 32.556 98.8265 30.5688V22.9944C98.8265 21.0648 99.2891 19.7112 100.128 18.732C101.255 17.58 102.961 17.0328 105.477 17.0328ZM108.224 29.7048V23.9448C108.224 21.4104 106.865 20.892 105.622 20.892H105.275C103.424 20.892 102.701 22.0728 102.701 23.9448V29.7048C102.701 32.2392 104.06 32.7864 105.275 32.7864H105.622C107.472 32.7864 108.195 31.548 108.224 29.7048ZM100.648 23.196V30.3384C100.648 31.692 100.995 32.8152 101.805 33.6504C102.557 34.3992 103.713 34.8024 105.13 34.8024H105.882C108.6 34.8024 110.364 33.0744 110.364 30.3384V23.196C110.364 20.2584 108.802 18.6744 105.882 18.6744H105.13C102.181 18.6744 100.648 20.2584 100.648 23.196ZM105.882 34.428H105.13C103.771 34.428 102.759 34.0824 102.036 33.3624C101.313 32.6424 100.937 31.6344 100.937 30.3384V23.196C100.937 20.46 102.412 19.02 105.13 19.02H105.882C108.629 19.02 109.988 20.4312 109.988 23.196V30.3384C109.988 31.548 109.612 32.6424 108.831 33.3912C108.079 34.0248 107.067 34.428 105.882 34.428ZM137.66 17.292C137.834 17.292 137.949 17.436 137.892 17.6088L132.918 36.1272C132.889 36.2424 132.773 36.3 132.658 36.3H129.477C129.361 36.3 129.275 36.2424 129.217 36.1272L127.251 28.8408L124.59 36.156C124.561 36.2424 124.504 36.3 124.388 36.3H121.323C121.207 36.3 121.12 36.2424 121.092 36.1272L116.147 17.58C116.118 17.436 116.205 17.292 116.407 17.292H119.733C119.819 17.292 119.906 17.3784 119.935 17.4648L123.145 29.676L125.545 22.4472L124.214 17.6088C124.157 17.436 124.301 17.292 124.446 17.292H128.031C128.147 17.292 128.205 17.3208 128.263 17.4648L130.923 29.2152L134.104 17.4648C134.133 17.3784 134.219 17.292 134.335 17.292H137.66ZM127.482 22.7352L123.116 34.3128L118.431 18.9624C118.373 18.7608 118.026 18.8472 118.084 19.0488L122.769 34.428C122.855 34.8312 123.347 34.8024 123.492 34.428L127.626 23.3112L130.663 34.3992C130.778 34.8312 131.299 34.8312 131.386 34.428L135.983 19.0488C136.07 18.8472 135.694 18.732 135.636 18.9624L131.067 34.3128L126.846 18.9624C126.817 18.7608 126.441 18.8184 126.528 19.0488L127.482 22.7352ZM148.908 24.636C151.106 25.6728 153.969 27.3144 153.969 30.2808C153.969 31.1448 153.824 32.8152 152.87 34.2264C151.8 35.8104 150.123 36.588 147.81 36.588C145.352 36.588 142.489 35.4072 141.593 32.7288C141.564 32.6424 141.593 32.556 141.679 32.4984L144.34 30.2232C144.455 30.1368 144.629 30.1368 144.716 30.2808C144.773 30.4248 144.889 30.6552 145.034 30.9432C145.467 31.836 146.508 32.7288 147.665 32.7288C148.561 32.7288 149.776 32.2392 149.776 30.8568C149.776 29.532 147.954 28.7832 146.826 28.3512C145.525 27.8328 144.195 27.1704 143.067 26.1912C141.882 25.0968 141.304 23.8872 141.304 22.4472C141.304 18.8472 144.629 17.0328 147.781 17.0328C150.267 17.0328 152.118 18.3288 153.333 20.892C153.39 21.0072 153.332 21.1512 153.246 21.2088L150.672 22.9944C150.557 23.052 150.499 23.052 150.383 22.908C149.4 21.4968 148.533 20.8344 147.376 20.8344C146.769 20.8344 145.352 21.0648 145.352 22.1304C145.352 23.4264 147.752 24.0888 148.908 24.636ZM143.646 32.5848C144.369 34.0248 146.364 34.86 147.983 34.86C150.094 34.86 151.8 33.42 152.031 31.2312C152.32 28.5528 150.21 27.4008 148.128 26.364L147.202 25.9608C145.063 25.0104 143.501 24.2904 143.501 22.3032C143.501 20.1144 145.525 19.1064 147.52 19.1064C149.342 19.1064 150.296 20.172 150.788 20.8344C150.961 21.0648 151.251 20.8632 151.077 20.6328C150.586 20.028 149.545 18.7608 147.52 18.7608C145.236 18.7608 143.154 19.884 143.154 22.3032C143.154 24.4632 144.889 25.2984 147.087 26.3064L147.983 26.7384C150.846 28.092 151.887 29.3592 151.655 31.2024C151.222 34.14 148.966 34.5144 147.983 34.5144C145.814 34.5144 144.369 33.2184 143.935 32.412C143.79 32.268 143.588 32.412 143.646 32.5848ZM159.81 36.5592C158.451 36.5592 157.294 35.4072 157.294 33.996C157.294 32.5848 158.451 31.4904 159.81 31.4904C161.226 31.4904 162.412 32.5848 162.412 33.996C162.412 35.4072 161.226 36.5592 159.81 36.5592ZM159.839 34.86C160.272 34.86 160.619 34.5432 160.619 34.1112C160.619 33.6792 160.272 33.3624 159.839 33.3624C159.405 33.3624 159.087 33.6792 159.087 34.1112C159.087 34.5432 159.405 34.86 159.839 34.86ZM159.839 33.708C160.07 33.708 160.243 33.8808 160.243 34.1112C160.243 34.3704 160.07 34.5432 159.839 34.5432C159.607 34.5432 159.405 34.3704 159.405 34.1112C159.405 33.8808 159.607 33.708 159.839 33.708ZM182.711 17.292C182.855 17.292 182.971 17.4072 182.971 17.5512V36.0408C182.971 36.1848 182.855 36.3 182.711 36.3H179.559C179.472 36.3 179.328 36.1848 179.328 36.0408V25.3848L176.147 36.1272C176.089 36.2424 176.031 36.3 175.916 36.3H173.631C173.545 36.3 173.429 36.2424 173.4 36.1272L170.422 25.1832V36.0408C170.422 36.1848 170.306 36.3 170.161 36.3H166.952C166.836 36.3 166.749 36.1848 166.749 36.0408V17.5512C166.749 17.4072 166.836 17.292 166.952 17.292H171C171.116 17.292 171.231 17.3784 171.26 17.4648L174.759 29.1288L178.605 17.4648C178.605 17.3784 178.692 17.292 178.807 17.292H182.711ZM180.918 34.5432C180.918 34.7448 181.294 34.8024 181.294 34.5432V19.02C181.294 18.9624 181.207 18.876 181.12 18.876H179.761C179.646 18.876 179.617 18.9624 179.559 19.02L174.759 33.276L169.988 18.9912C169.988 18.9048 169.93 18.876 169.843 18.876H168.426C168.34 18.876 168.253 18.9624 168.253 19.0488V34.5432C168.253 34.7448 168.629 34.8024 168.629 34.5432V19.2504H169.699L174.586 33.8808C174.701 34.0824 174.788 34.0248 174.933 33.8808L179.848 19.2504H180.918V34.5432ZM194.682 17.0328C197.169 17.0328 198.904 17.58 200.002 18.7608C200.87 19.7112 201.275 21.0648 201.275 22.9944V30.5688C201.275 32.556 200.87 33.9384 200.002 34.86C198.875 36.012 197.169 36.588 194.682 36.588C192.108 36.588 190.431 36.012 189.333 34.86C188.494 33.9384 188.031 32.556 188.031 30.5688V22.9944C188.031 21.0648 188.494 19.7112 189.333 18.732C190.46 17.58 192.166 17.0328 194.682 17.0328ZM197.429 29.7048V23.9448C197.429 21.4104 196.07 20.892 194.826 20.892H194.479C192.629 20.892 191.906 22.0728 191.906 23.9448V29.7048C191.906 32.2392 193.265 32.7864 194.479 32.7864H194.826C196.677 32.7864 197.4 31.548 197.429 29.7048ZM189.853 23.196V30.3384C189.853 31.692 190.2 32.8152 191.01 33.6504C191.761 34.3992 192.918 34.8024 194.335 34.8024H195.087C197.805 34.8024 199.569 33.0744 199.569 30.3384V23.196C199.569 20.2584 198.007 18.6744 195.087 18.6744H194.335C191.386 18.6744 189.853 20.2584 189.853 23.196ZM195.087 34.428H194.335C192.976 34.428 191.964 34.0824 191.241 33.3624C190.518 32.6424 190.142 31.6344 190.142 30.3384V23.196C190.142 20.46 191.617 19.02 194.335 19.02H195.087C197.834 19.02 199.193 20.4312 199.193 23.196V30.3384C199.193 31.548 198.817 32.6424 198.036 33.3912C197.284 34.0248 196.272 34.428 195.087 34.428ZM214.229 17.5512C214.229 17.4072 214.345 17.292 214.489 17.292H217.814C217.959 17.292 218.075 17.4072 218.075 17.5512V36.0408C218.075 36.1848 217.959 36.3 217.814 36.3H214.605C214.489 36.3 214.373 36.2424 214.345 36.156L210.123 26.6808V36.0408C210.123 36.1848 210.007 36.3 209.863 36.3H206.566C206.422 36.3 206.335 36.1848 206.335 36.0408V17.5512C206.335 17.4072 206.422 17.292 206.566 17.292H209.978C210.094 17.292 210.152 17.3784 210.181 17.436L214.229 26.7384V17.5512ZM216.311 34.572V19.02C216.311 18.8184 215.935 18.7608 215.935 19.02V33.8232L208.388 18.9624C208.301 18.8472 208.07 18.8472 208.07 19.02V34.5432C208.07 34.8024 208.417 34.8024 208.417 34.5432V19.7688L215.935 34.6008C216.051 34.8024 216.311 34.7448 216.311 34.572ZM223.742 36.3C223.598 36.3 223.511 36.1848 223.511 36.0408V17.5512C223.511 17.4072 223.598 17.292 223.742 17.292H233.573C233.718 17.292 233.834 17.4072 233.834 17.5512V20.6328C233.834 20.7768 233.718 20.892 233.573 20.892H227.328V24.8088H232.186C232.33 24.8088 232.417 24.924 232.417 25.068V28.2072C232.417 28.3512 232.33 28.4664 232.186 28.4664H227.328V32.7H233.573C233.718 32.7 233.834 32.8152 233.834 32.9592V36.0408C233.834 36.1848 233.718 36.3 233.573 36.3H223.742ZM225.188 19.1064V34.428C225.188 34.6008 225.304 34.6584 225.419 34.6584H232.07C232.33 34.6584 232.272 34.3128 232.07 34.3128H225.564V26.796H230.884C231.058 26.796 231.058 26.3928 230.884 26.3928H225.564V19.2504H232.07C232.272 19.2504 232.33 18.876 232.07 18.876H225.419C225.304 18.876 225.188 18.9624 225.188 19.1064ZM240.889 17.436L243.405 22.2744L245.863 17.436C245.949 17.292 245.978 17.292 246.094 17.292H249.333C249.506 17.292 249.622 17.4648 249.564 17.6088L245.371 27.3144V36.0408C245.371 36.1848 245.255 36.3 245.111 36.3H241.699C241.612 36.3 241.496 36.1848 241.496 36.0408V27.3144L237.188 17.6664C237.13 17.4648 237.217 17.292 237.419 17.292H240.658C240.773 17.292 240.802 17.292 240.889 17.436ZM243.549 26.652L247.164 19.164C247.251 18.9912 246.961 18.8472 246.846 19.0488L243.405 26.22L239.877 19.0488C239.761 18.8472 239.443 18.9912 239.53 19.1928L243.231 26.652V34.6008C243.231 34.8024 243.549 34.8312 243.549 34.6008V26.652Z" fill="white"/>
<path d="M71.5663 55.5C71.491 55.5 71.4458 55.44 71.4458 55.365V45.735C71.4458 45.66 71.491 45.6 71.5663 45.6H76.6868C76.7621 45.6 76.8223 45.66 76.8223 45.735V47.34C76.8223 47.415 76.7621 47.475 76.6868 47.475H73.4338V49.515H75.9639C76.0392 49.515 76.0844 49.575 76.0844 49.65V51.285C76.0844 51.36 76.0392 51.42 75.9639 51.42H73.4338V53.625H76.6868C76.7621 53.625 76.8223 53.685 76.8223 53.76V55.365C76.8223 55.44 76.7621 55.5 76.6868 55.5H71.5663ZM76.2801 51.27L76.747 51.735V51.945C76.747 51.99 76.6868 52.05 76.6566 52.05L76.1295 51.54C76.2199 51.495 76.2801 51.39 76.2801 51.27ZM77.0181 55.365L77.485 55.845V56.025C77.485 56.085 77.4247 56.145 77.3645 56.16L76.8675 55.635C76.9578 55.59 77.0181 55.485 77.0181 55.365ZM76.2801 50.85V50.415L76.747 50.895V51.315L76.2801 50.85ZM73.6295 48.21V47.775L74.0964 48.24V48.675L73.6295 48.21ZM74.1115 52.065L73.6446 51.6H74.0813L74.5482 52.065H74.1115ZM77.3494 48.135H76.9127L76.4609 47.67H76.6868C76.747 47.67 76.8072 47.64 76.8374 47.625L77.3494 48.135ZM73.5693 56.16H73.1476L72.6807 55.695H73.1175L73.5693 56.16ZM71.8374 55.695H72.2741L72.7259 56.16H72.3042L71.8374 55.695ZM77.0181 54.96V54.525L77.485 54.99V55.41L77.0181 54.96ZM75.3313 51.6H75.7681L76.2199 52.065H75.8133L75.3313 51.6ZM76.0693 48.135L75.6175 47.67H76.0392L76.506 48.135H76.0693ZM76.0693 55.695H76.491L76.9578 56.16H76.5211L76.0693 55.695ZM74.7741 47.67H75.1807L75.6627 48.135H75.2259L74.7741 47.67ZM75.6325 55.695L76.1145 56.16H75.6777L75.2259 55.695H75.6325ZM74.9247 51.6L75.3765 52.065H74.9548L74.488 51.6H74.9247ZM74.4127 56.16H74.006L73.5241 55.695H73.9458L74.4127 56.16ZM77.485 47.415V47.835L77.0181 47.37V46.95L77.485 47.415ZM74.0964 52.47V52.875L73.6295 52.41V51.99L74.0964 52.47ZM77.485 46.575V46.995L77.0181 46.515V46.11L77.485 46.575ZM73.9307 47.67H74.3374L74.8042 48.135H74.3976L73.9307 47.67ZM75.256 56.16H74.8494L74.3825 55.695H74.7892L75.256 56.16ZM73.6295 49.05V48.615L74.0964 49.095V49.335H73.9006L73.6295 49.05ZM73.6295 53.25V52.845L74.0964 53.31V53.445H73.8103L73.6295 53.25ZM76.2801 49.785L76.7169 50.22C76.747 50.25 76.747 50.265 76.747 50.31V50.475L76.2801 50.01V49.785ZM77.485 54.39V54.57L77.0181 54.12V53.895L77.4398 54.3C77.485 54.345 77.485 54.36 77.485 54.39ZM83.2237 45.69C83.2387 45.645 83.2688 45.6 83.3291 45.6H85.1966C85.2568 45.6 85.2869 45.645 85.302 45.69L87.9074 55.335C87.9225 55.425 87.8622 55.5 87.7719 55.5H86.055C86.0098 55.5 85.9646 55.47 85.9496 55.41L85.3622 53.31H83.1634L82.5911 55.41C82.5761 55.47 82.546 55.5 82.4857 55.5H80.7538C80.6634 55.5 80.6032 55.425 80.6182 55.335L83.2237 45.69ZM83.6453 51.45H84.8953L84.2478 49.185L83.6453 51.45ZM82.5761 55.665C82.6966 55.635 82.7719 55.56 82.7869 55.47L83.299 55.95L83.2538 56.07C83.2387 56.115 83.1935 56.16 83.1484 56.16H83.0731L82.5761 55.665ZM88.5249 56.115C88.5098 56.145 88.4646 56.16 88.4345 56.16H88.1333L87.6664 55.695H87.7719C87.8622 55.695 87.9375 55.65 87.9978 55.59L88.5249 56.115ZM82.8773 55.125L82.9676 54.795L83.4646 55.29L83.3743 55.62L82.8773 55.125ZM83.0429 54.45L83.1484 54.135L83.6303 54.615L83.555 54.96L83.0429 54.45ZM83.314 53.49H83.3893L83.8261 53.94L83.7206 54.285L83.2387 53.79L83.314 53.49ZM86.808 55.695H87.2447L87.7116 56.16H87.2899L86.808 55.695ZM84.2327 53.97L83.7809 53.49H84.2026L84.6694 53.97H84.2327ZM81.7478 55.695H82.1845L82.6363 56.16H82.2146L81.7478 55.695ZM81.7929 56.16H81.4315C81.4164 56.16 81.3713 56.145 81.3562 56.115L80.9044 55.695H81.3411L81.7929 56.16ZM85.3472 53.97H85.0761L84.6243 53.49H85.046L85.2869 53.745L85.3472 53.97ZM86.9285 49.89L86.5369 49.515L86.3863 48.945L86.7779 49.32L86.9285 49.89ZM87.8472 53.34L87.4556 52.95L87.305 52.395L87.6966 52.77L87.8472 53.34ZM88.1484 54.495L87.7719 54.12L87.6213 53.535L87.9978 53.91L88.1484 54.495ZM87.5459 52.2L87.1544 51.81L87.0038 51.225L87.3803 51.615L87.5459 52.2ZM85.7538 46.635L86.1604 47.025L86.311 47.61L85.9345 47.22L85.7538 46.635ZM88.4646 55.635L88.0731 55.26L87.9225 54.675L88.299 55.065L88.4646 55.635ZM87.2297 51.045L86.8532 50.67L86.6875 50.085L87.0791 50.475L87.2297 51.045ZM86.6122 48.75L86.2357 48.36L86.0851 47.79L86.4616 48.165L86.6122 48.75ZM83.9315 51.135L84.0219 50.79L84.5038 51.27H84.067L83.9315 51.135ZM84.3833 50.31L84.549 50.895L84.1273 50.46L84.2026 50.145L84.3833 50.31ZM86.2056 55.695H86.4014L86.8682 56.16H86.7176C86.6875 56.16 86.6423 56.145 86.6273 56.115L86.2056 55.695ZM85.6032 46.065L85.5731 45.915L85.9044 46.26C85.9345 46.275 85.9646 46.32 85.9646 46.35L86.0098 46.44L85.6032 46.065ZM95.3788 49.425C96.5234 49.965 98.0143 50.82 98.0143 52.365C98.0143 52.815 97.939 53.685 97.442 54.42C96.8848 55.245 96.0113 55.65 94.8065 55.65C93.5264 55.65 92.0354 55.035 91.5685 53.64C91.5535 53.595 91.5685 53.55 91.6137 53.52L92.9993 52.335C93.0595 52.29 93.1499 52.29 93.195 52.365C93.2252 52.44 93.2854 52.56 93.3607 52.71C93.5866 53.175 94.1288 53.64 94.7312 53.64C95.1981 53.64 95.8306 53.385 95.8306 52.665C95.8306 51.975 94.8818 51.585 94.2944 51.36C93.6167 51.09 92.924 50.745 92.3366 50.235C91.7191 49.665 91.4179 49.035 91.4179 48.285C91.4179 46.41 93.1499 45.465 94.7914 45.465C96.0866 45.465 97.0505 46.14 97.683 47.475C97.7131 47.535 97.683 47.61 97.6378 47.64L96.2975 48.57C96.2372 48.6 96.2071 48.6 96.1469 48.525C95.6348 47.79 95.183 47.445 94.5806 47.445C94.2643 47.445 93.5264 47.565 93.5264 48.12C93.5264 48.795 94.7764 49.14 95.3788 49.425ZM97.7432 47.79C97.8336 47.715 97.8938 47.61 97.8788 47.49L98.1348 47.76C98.195 47.865 98.2703 48 98.3456 48.135C98.3607 48.195 98.3456 48.27 98.2854 48.3L98.2703 48.315L97.7432 47.79ZM97.7884 48.66L97.2613 48.135L97.5023 47.97L98.0294 48.495L97.7884 48.66ZM97.2764 48.99L96.7493 48.465L96.9902 48.3L97.5173 48.825L97.2764 48.99ZM95.2432 47.82C95.3788 47.91 95.4993 48.015 95.6348 48.15C95.6197 48.15 95.5746 48.135 95.5595 48.135L95.2432 47.82ZM94.2493 47.67C94.3547 47.64 94.4752 47.625 94.6408 47.625L95.1077 48.12C95.0023 48.12 94.8818 48.135 94.7463 48.165L94.2493 47.67ZM93.7372 48C93.7523 47.94 93.8125 47.85 93.9481 47.775L94.4752 48.3C94.3697 48.36 94.2944 48.435 94.2643 48.525L93.7372 48ZM98.195 52.44V52.365C98.195 52.245 98.18 52.11 98.1649 51.99L98.5716 52.41C98.6167 52.56 98.6469 52.725 98.6469 52.89L98.195 52.44ZM98.1197 53.22C98.1348 53.085 98.1649 52.95 98.1649 52.845L98.6469 53.325C98.6469 53.445 98.6318 53.55 98.6167 53.7L98.1197 53.22ZM98.436 54.375L97.939 53.865C97.9691 53.76 98.0143 53.64 98.0294 53.55L98.5414 54.06C98.5113 54.15 98.4812 54.27 98.436 54.375ZM98.18 54.945L97.6529 54.435C97.7131 54.345 97.7583 54.24 97.8035 54.15L98.3306 54.675C98.2703 54.765 98.2402 54.87 98.18 54.945ZM97.8185 55.425L97.2914 54.9C97.3517 54.825 97.427 54.75 97.4872 54.675L98.0143 55.2C97.9541 55.275 97.8788 55.35 97.8185 55.425ZM93.6619 51.3C93.8426 51.375 94.0384 51.465 94.2191 51.54C94.2794 51.57 94.3396 51.585 94.3999 51.6L94.7161 51.915C94.43 51.81 94.1438 51.675 93.8878 51.51L93.6619 51.3ZM97.3517 55.815L96.8396 55.29C96.9149 55.245 96.9902 55.185 97.0655 55.11L97.5926 55.635C97.5173 55.71 97.442 55.77 97.3517 55.815ZM96.7794 56.1L96.2824 55.59C96.3878 55.545 96.4782 55.5 96.5836 55.44L97.0806 55.965C96.9902 56.025 96.8999 56.07 96.7794 56.1ZM93.8878 53.1C93.7673 53.01 93.692 52.89 93.6167 52.8L93.8276 53.01L93.8426 53.025C93.8728 53.04 93.8728 53.07 93.8878 53.1ZM96.1318 56.265L95.6197 55.785C95.7553 55.74 95.8607 55.725 95.9812 55.695L96.4631 56.19C96.3577 56.235 96.2372 56.25 96.1318 56.265ZM95.3185 56.31L94.8517 55.845C95.0023 55.845 95.1228 55.845 95.2432 55.815L95.7252 56.31H95.3185ZM94.2944 56.145L93.9029 55.74C94.0685 55.785 94.2493 55.8 94.4149 55.815L94.8517 56.265C94.671 56.235 94.4902 56.19 94.2944 56.145ZM93.6017 55.86C93.3758 55.74 93.1649 55.59 92.9842 55.425C93.0746 55.485 93.195 55.545 93.3005 55.575L93.6017 55.86ZM96.3577 48.75L96.5083 48.66L97.0354 49.17L96.9601 49.215C96.8999 49.26 96.8848 49.275 96.8095 49.2L96.3577 48.75ZM104.688 48.195L105.968 45.675C106.013 45.6 106.028 45.6 106.088 45.6H107.775C107.865 45.6 107.925 45.69 107.895 45.765L105.712 50.82V55.365C105.712 55.44 105.651 55.5 105.576 55.5H103.799C103.754 55.5 103.694 55.44 103.694 55.365V50.82L101.45 45.795C101.419 45.69 101.465 45.6 101.57 45.6H103.257C103.317 45.6 103.332 45.6 103.377 45.675L104.688 48.195ZM108.076 45.84C108.227 45.99 108.438 46.185 108.528 46.275C108.573 46.32 108.588 46.365 108.573 46.425L108.468 46.635L107.971 46.125L108.076 45.84ZM107.7 46.725L107.835 46.425L108.347 46.935L108.212 47.235L107.7 46.725ZM108.076 47.52L107.941 47.82L107.444 47.31L107.564 47.01L108.076 47.52ZM107.835 48.12L107.7 48.39L107.188 47.895L107.323 47.595L107.835 48.12ZM107.564 48.69L107.444 48.975L106.931 48.465L107.067 48.195L107.564 48.69ZM104.16 46.56L103.95 46.35L103.829 46.095L103.98 46.245C104.025 46.29 104.07 46.335 104.085 46.365L104.16 46.56ZM107.308 49.275L107.188 49.575L106.691 49.065L106.796 48.765L107.308 49.275ZM106.419 49.65L106.555 49.35L107.067 49.86L106.931 50.16L106.419 49.65ZM104.748 47.685L104.688 47.775L104.401 47.22L104.612 47.445L104.748 47.685ZM106.796 50.46L106.66 50.745L106.163 50.235L106.284 49.95L106.796 50.46ZM105.907 50.835L106.043 50.535L106.555 51.045L106.419 51.345L105.907 50.835ZM105.892 51.66V51.225L106.359 51.69V52.11L105.892 51.66ZM105.892 52.5V52.065L106.359 52.545V52.95L105.892 52.5ZM105.892 53.34V52.92L106.359 53.385V53.79L105.892 53.34ZM105.892 54.165V53.76L106.359 54.225V54.645L105.892 54.165ZM105.892 55.02V54.6L106.359 55.065V55.485L105.892 55.02ZM105.712 55.665C105.802 55.635 105.877 55.545 105.892 55.425L106.359 55.89V56.025C106.359 56.1 106.314 56.16 106.239 56.16H106.194L105.712 55.665ZM104.883 55.695H105.29L105.757 56.16H105.35L104.883 55.695ZM104.507 56.16L104.025 55.695H104.462L104.913 56.16H104.507ZM122.762 45.6C124.434 45.6 125.443 46.545 125.443 48.3V50.19C125.443 51.795 124.449 52.875 122.762 52.875H121.497V55.365C121.497 55.44 121.437 55.5 121.361 55.5H119.63C119.569 55.5 119.524 55.44 119.524 55.365V45.735C119.524 45.66 119.569 45.6 119.63 45.6H122.762ZM123.47 49.74V48.75C123.47 47.715 122.988 47.61 121.934 47.61H121.497V50.91H121.934C122.762 50.91 123.47 50.76 123.47 49.74ZM126.075 48.42L125.639 47.97C125.623 47.8037 125.598 47.6385 125.563 47.475L125.955 47.865C126.015 48.045 126.045 48.225 126.075 48.42ZM126.105 48.87V49.29L125.639 48.825V48.39L126.105 48.87ZM125.639 49.665V49.245L126.105 49.71V50.145L125.639 49.665ZM125.639 50.19V50.085L126.105 50.55V50.97L125.639 50.49V50.19ZM122.958 48.27H122.551L122.084 47.79C122.25 47.79 122.386 47.79 122.506 47.82L122.958 48.27ZM125.488 51.21C125.518 51.09 125.563 50.985 125.578 50.865L126.075 51.36C126.045 51.465 126.03 51.6 126 51.72L125.488 51.21ZM125.247 51.795C125.292 51.69 125.337 51.6 125.367 51.51L125.895 52.035C125.864 52.125 125.804 52.215 125.744 52.32L125.247 51.795ZM122.16 48.3V48.72L121.678 48.24V47.835L122.16 48.3ZM124.87 52.26C124.946 52.2 125.021 52.125 125.066 52.05L125.593 52.56C125.518 52.65 125.473 52.725 125.398 52.785L124.87 52.275V52.26ZM122.16 49.14V49.56L121.678 49.095V48.675L122.16 49.14ZM122.16 49.995V50.4L121.678 49.935V49.515L122.16 49.995ZM124.389 52.635C124.494 52.59 124.569 52.515 124.645 52.47L125.172 52.995C125.096 53.04 125.021 53.1 124.916 53.16L124.389 52.635ZM123.831 52.89C123.922 52.875 124.042 52.845 124.133 52.785L124.645 53.31C124.539 53.34 124.434 53.385 124.343 53.4L123.831 52.89ZM122.039 50.715H121.678V50.37L122.039 50.715ZM123.108 53.04C123.244 53.025 123.364 53.025 123.485 52.995L123.982 53.49C123.861 53.52 123.741 53.52 123.605 53.535L123.108 53.04ZM122.28 53.07H122.717L123.184 53.535H122.762L122.28 53.07ZM121.678 53.07H121.874L122.34 53.535H122.16V53.775L121.678 53.31V53.07ZM121.678 54.15V53.715L122.16 54.195V54.6L121.678 54.15ZM121.678 54.99V54.57L122.16 55.035V55.44L121.678 54.99ZM120.699 55.695H121.12L121.587 56.16H121.181L120.699 55.695ZM119.855 55.695H120.277L120.744 56.16H120.322L119.855 55.695ZM121.512 55.65C121.602 55.62 121.663 55.515 121.678 55.41L122.16 55.875V56.025C122.16 56.1 122.099 56.16 122.024 56.16L121.512 55.65ZM131.422 45.69C131.438 45.645 131.468 45.6 131.528 45.6H133.395C133.456 45.6 133.486 45.645 133.501 45.69L136.106 55.335C136.121 55.425 136.061 55.5 135.971 55.5H134.254C134.209 55.5 134.163 55.47 134.148 55.41L133.561 53.31H131.362L130.79 55.41C130.775 55.47 130.745 55.5 130.685 55.5H128.953C128.862 55.5 128.802 55.425 128.817 55.335L131.422 45.69ZM131.844 51.45H133.094L132.447 49.185L131.844 51.45ZM130.775 55.665C130.895 55.635 130.971 55.56 130.986 55.47L131.498 55.95L131.453 56.07C131.438 56.115 131.392 56.16 131.347 56.16H131.272L130.775 55.665ZM136.724 56.115C136.709 56.145 136.663 56.16 136.633 56.16H136.332L135.865 55.695H135.971C136.061 55.695 136.136 55.65 136.197 55.59L136.724 56.115ZM131.076 55.125L131.166 54.795L131.663 55.29L131.573 55.62L131.076 55.125ZM131.242 54.45L131.347 54.135L131.829 54.615L131.754 54.96L131.242 54.45ZM131.513 53.49H131.588L132.025 53.94L131.919 54.285L131.438 53.79L131.513 53.49ZM135.007 55.695H135.444L135.91 56.16H135.489L135.007 55.695ZM132.431 53.97L131.98 53.49H132.401L132.868 53.97H132.431ZM129.947 55.695H130.383L130.835 56.16H130.413L129.947 55.695ZM129.992 56.16H129.63C129.615 56.16 129.57 56.145 129.555 56.115L129.103 55.695H129.54L129.992 56.16ZM133.546 53.97H133.275L132.823 53.49H133.245L133.486 53.745L133.546 53.97ZM135.127 49.89L134.736 49.515L134.585 48.945L134.977 49.32L135.127 49.89ZM136.046 53.34L135.654 52.95L135.504 52.395L135.895 52.77L136.046 53.34ZM136.347 54.495L135.971 54.12L135.82 53.535L136.197 53.91L136.347 54.495ZM135.745 52.2L135.353 51.81L135.203 51.225L135.579 51.615L135.745 52.2ZM133.953 46.635L134.359 47.025L134.51 47.61L134.133 47.22L133.953 46.635ZM136.663 55.635L136.272 55.26L136.121 54.675L136.498 55.065L136.663 55.635ZM135.428 51.045L135.052 50.67L134.886 50.085L135.278 50.475L135.428 51.045ZM134.811 48.75L134.435 48.36L134.284 47.79L134.66 48.165L134.811 48.75ZM132.13 51.135L132.221 50.79L132.703 51.27H132.266L132.13 51.135ZM132.582 50.31L132.748 50.895L132.326 50.46L132.401 50.145L132.582 50.31ZM134.404 55.695H134.6L135.067 56.16H134.916C134.886 56.16 134.841 56.145 134.826 56.115L134.404 55.695ZM133.802 46.065L133.772 45.915L134.103 46.26C134.133 46.275 134.163 46.32 134.163 46.35L134.209 46.44L133.802 46.065ZM142.629 48.195L143.909 45.675C143.954 45.6 143.969 45.6 144.029 45.6H145.716C145.806 45.6 145.867 45.69 145.837 45.765L143.653 50.82V55.365C143.653 55.44 143.593 55.5 143.517 55.5H141.74C141.695 55.5 141.635 55.44 141.635 55.365V50.82L139.391 45.795C139.361 45.69 139.406 45.6 139.511 45.6H141.198C141.258 45.6 141.273 45.6 141.319 45.675L142.629 48.195ZM146.017 45.84C146.167 45.99 146.378 46.185 146.468 46.275C146.514 46.32 146.529 46.365 146.514 46.425L146.408 46.635L145.911 46.125L146.017 45.84ZM145.64 46.725L145.776 46.425L146.288 46.935L146.152 47.235L145.64 46.725ZM146.017 47.52L145.881 47.82L145.384 47.31L145.505 47.01L146.017 47.52ZM145.776 48.12L145.64 48.39L145.128 47.895L145.264 47.595L145.776 48.12ZM145.505 48.69L145.384 48.975L144.872 48.465L145.008 48.195L145.505 48.69ZM142.101 46.56L141.89 46.35L141.77 46.095L141.92 46.245C141.965 46.29 142.011 46.335 142.026 46.365L142.101 46.56ZM145.249 49.275L145.128 49.575L144.631 49.065L144.736 48.765L145.249 49.275ZM144.36 49.65L144.495 49.35L145.008 49.86L144.872 50.16L144.36 49.65ZM142.688 47.685L142.628 47.775L142.342 47.22L142.553 47.445L142.688 47.685ZM144.736 50.46L144.601 50.745L144.104 50.235L144.224 49.95L144.736 50.46ZM143.848 50.835L143.983 50.535L144.495 51.045L144.36 51.345L143.848 50.835ZM143.833 51.66V51.225L144.3 51.69V52.11L143.833 51.66ZM143.833 52.5V52.065L144.3 52.545V52.95L143.833 52.5ZM143.833 53.34V52.92L144.3 53.385V53.79L143.833 53.34ZM143.833 54.165V53.76L144.3 54.225V54.645L143.833 54.165ZM143.833 55.02V54.6L144.3 55.065V55.485L143.833 55.02ZM143.652 55.665C143.742 55.635 143.818 55.545 143.833 55.425L144.3 55.89V56.025C144.3 56.1 144.255 56.16 144.179 56.16H144.134L143.652 55.665ZM142.824 55.695H143.23L143.697 56.16H143.291L142.824 55.695ZM142.447 56.16L141.965 55.695H142.402L142.854 56.16H142.447Z" fill="white"/>
</g>
<defs>
<linearGradient id="paint0_linear_137_648" x1="10.7681" y1="21.45" x2="5395.63" y2="21.45" gradientUnits="userSpaceOnUse">
<stop stop-color="#905E26"/>
<stop offset="0.5" stop-color="#F5EC9B"/>
<stop offset="1" stop-color="#905E26"/>
</linearGradient>
<linearGradient id="paint1_linear_137_648" x1="29.8945" y1="31.875" x2="1032.53" y2="31.875" gradientUnits="userSpaceOnUse">
<stop stop-color="#905E26"/>
<stop offset="0.5" stop-color="#F5EC9B"/>
<stop offset="1" stop-color="#905E26"/>
</linearGradient>
<clipPath id="clip0_137_648">
<rect width="250" height="60" fill="white"/>
</clipPath>
</defs>
</svg>
